<?xml version="1.0" encoding="UTF-8" standalone="no"?>
<!-- Created with Inkscape (http://www.inkscape.org/) -->

<svg
   xmlns:dc="http://purl.org/dc/elements/1.1/"
   xmlns:cc="http://creativecommons.org/ns#"
   xmlns:rdf="http://www.w3.org/1999/02/22-rdf-syntax-ns#"
   xmlns:svg="http://www.w3.org/2000/svg"
   xmlns="http://www.w3.org/2000/svg"
   xmlns:sodipodi="http://sodipodi.sourceforge.net/DTD/sodipodi-0.dtd"
   xmlns:inkscape="http://www.inkscape.org/namespaces/inkscape"
   width="210mm"
   height="297mm"
   viewBox="0 0 210 297"
   version="1.1"
   id="svg8"
   inkscape:export-filename="/home/temberlin/Documents/bridge.png"
   inkscape:export-xdpi="102.2"
   inkscape:export-ydpi="102.2"
   inkscape:version="0.92.1 r15371"
   sodipodi:docname="bridge.svg">
  <defs
     id="defs2">
    <clipPath
       clipPathUnits="userSpaceOnUse"
       id="clipPath4679">
      <rect
         style="fill:#000000;fill-opacity:1;stroke:none;stroke-width:0.77667654;stroke-miterlimit:4;stroke-dasharray:none;stroke-dashoffset:0;stroke-opacity:1"
         id="rect4681"
         width="169.66869"
         height="93.890511"
         x="-225.60187"
         y="55.267109" />
    </clipPath>
  </defs>
  <sodipodi:namedview
     id="base"
     pagecolor="#ffffff"
     bordercolor="#666666"
     borderopacity="1.0"
     inkscape:pageopacity="0.0"
     inkscape:pageshadow="2"
     inkscape:zoom="0.49497475"
     inkscape:cx="-165.35771"
     inkscape:cy="361.85878"
     inkscape:document-units="mm"
     inkscape:current-layer="layer1"
     showgrid="false"
     inkscape:window-width="1366"
     inkscape:window-height="685"
     inkscape:window-x="0"
     inkscape:window-y="24"
     inkscape:window-maximized="1" />
  <metadata
     id="metadata5">
    <rdf:RDF>
      <cc:Work
         rdf:about="">
        <dc:format>image/svg+xml</dc:format>
        <dc:type
           rdf:resource="http://purl.org/dc/dcmitype/StillImage" />
        <dc:title />
      </cc:Work>
    </rdf:RDF>
  </metadata>
  <g
     inkscape:label="Layer 1"
     inkscape:groupmode="layer"
     id="layer1">
    <g
       id="g4714"
       inkscape:export-xdpi="102.2"
       inkscape:export-ydpi="102.2">
      <g
         style="opacity:0.99"
         clip-path="url(#clipPath4679)"
         transform="matrix(1.5968373,0,0,1.4089994,253.71874,27.339614)"
         id="g4663">
        <rect
           style="fill:#2ca089;fill-opacity:1;stroke:none;stroke-width:1.16499996;stroke-miterlimit:4;stroke-dasharray:none;stroke-dashoffset:0;stroke-opacity:1"
           id="rect4587"
           width="318.58527"
           height="291.85831"
           x="-278.03726"
           y="-33.575775" />
        <g
           style=""
           id="g4634">
          <g
             style=""
             transform="translate(-245.37933,-50.087067)"
             id="g4541">
            <flowRoot
               xml:space="preserve"
               id="flowRoot4485"
               style="font-style:normal;font-variant:normal;font-weight:normal;font-stretch:normal;font-size:96px;line-height:1.25;font-family:PlakatFraktur;-inkscape-font-specification:PlakatFraktur;letter-spacing:0px;word-spacing:0px;fill:#000000;fill-opacity:1;stroke:none"
               transform="matrix(0.26458333,0,0,0.26458333,29.482143,4.5357143)"><flowRegion
                 id="flowRegion4487"
                 style="font-style:normal;font-variant:normal;font-weight:normal;font-stretch:normal;font-size:96px;font-family:PlakatFraktur;-inkscape-font-specification:PlakatFraktur"><rect
                   id="rect4489"
                   width="585.71429"
                   height="142.85715"
                   x="62.857143"
                   y="431.09113"
                   style="font-style:normal;font-variant:normal;font-weight:normal;font-stretch:normal;font-size:96px;font-family:PlakatFraktur;-inkscape-font-specification:PlakatFraktur" /></flowRegion><flowPara
                 id="flowPara4491">Bridge</flowPara></flowRoot>            <path
               style="fill:none;stroke:#000000;stroke-width:1.16499996;stroke-linecap:butt;stroke-linejoin:miter;stroke-miterlimit:4;stroke-dasharray:none;stroke-opacity:1"
               d="M 48.30267,139.97381 -1.9681623,163.9753 v 0 0 -0.18899"
               id="path4493"
               inkscape:connector-curvature="0" />
            <path
               style="fill:none;stroke:#000000;stroke-width:1.16499996;stroke-linecap:butt;stroke-linejoin:miter;stroke-miterlimit:4;stroke-dasharray:none;stroke-opacity:1"
               d="M 81.316922,127.186 119.70349,80.637639"
               id="path4504"
               inkscape:connector-curvature="0"
               inkscape:transform-center-x="1.5049809"
               inkscape:transform-center-y="-2.2498166" />
            <path
               style="fill:none;stroke:#000000;stroke-width:1.16499996;stroke-linecap:butt;stroke-linejoin:miter;stroke-miterlimit:4;stroke-dasharray:none;stroke-opacity:1"
               d="M 59.718553,127.62734 41.768053,57.591406"
               id="path4506"
               inkscape:connector-curvature="0" />
            <path
               style="fill:none;stroke:#000000;stroke-width:1.16499996;stroke-linecap:butt;stroke-linejoin:miter;stroke-miterlimit:4;stroke-dasharray:none;stroke-opacity:1"
               d="m 97.895832,143.35268 12.851188,76.54017"
               id="path4508"
               inkscape:connector-curvature="0" />
            <path
               style="fill:#000000;fill-opacity:1;stroke:none;stroke-width:0.26458332px;stroke-linecap:butt;stroke-linejoin:miter;stroke-opacity:1"
               d="m 98.699033,140.88402 0.07087,1.34654 -0.04725,1.13393 0.0118,1.79538 -0.614209,1.15756 -0.472471,-0.89592 -0.259019,-0.33418 -0.567804,-0.25353 -0.65024,0.11629 -0.271076,-0.10921 0.921316,-1.90169 z"
               id="path4510"
               inkscape:connector-curvature="0"
               sodipodi:nodetypes="cccccccccccc" />
            <path
               style="fill:none;stroke:#000000;stroke-width:1.16499996;stroke-linecap:butt;stroke-linejoin:miter;stroke-miterlimit:4;stroke-dasharray:none;stroke-opacity:1"
               d="m 106.59259,139.21718 82.85356,-19.37704"
               id="path4512"
               inkscape:connector-curvature="0" />
            <path
               style="fill:none;stroke:#000000;stroke-width:1.16499996;stroke-linecap:butt;stroke-linejoin:miter;stroke-miterlimit:4;stroke-dasharray:none;stroke-opacity:1"
               d="m 36.66369,145.80952 65.95684,25.89137"
               id="path4514"
               inkscape:connector-curvature="0" />
            <path
               style="fill:none;stroke:#000000;stroke-width:1.16499996;stroke-linecap:butt;stroke-linejoin:miter;stroke-miterlimit:4;stroke-dasharray:none;stroke-opacity:1"
               d="M 91.848214,114.05952 57.074405,57.174105"
               id="path4516"
               inkscape:connector-curvature="0" />
            <path
               style="fill:none;stroke:#000000;stroke-width:1.16499996;stroke-linecap:butt;stroke-linejoin:miter;stroke-miterlimit:4;stroke-dasharray:none;stroke-opacity:1"
               d="m 99.424264,105.10048 19.243406,31.00326"
               id="path4518"
               inkscape:connector-curvature="0" />
            <path
               style="fill:none;stroke:#000000;stroke-width:1.16499996;stroke-linecap:butt;stroke-linejoin:miter;stroke-miterlimit:4;stroke-dasharray:none;stroke-opacity:1"
               d="m 54.995534,110.65774 -76.351189,21.54464"
               id="path4522"
               inkscape:connector-curvature="0" />
            <path
               style="fill:none;stroke:#000000;stroke-width:1.16499996;stroke-linecap:butt;stroke-linejoin:miter;stroke-miterlimit:4;stroke-dasharray:none;stroke-opacity:1"
               d="M 71.059523,159.41666 31.75,221.78274"
               id="path4524"
               inkscape:connector-curvature="0" />
          </g>
          <path
             inkscape:connector-curvature="0"
             id="path4589"
             d="m -128.5119,83.915921 0.33072,0.826823 0.14175,0.54334 -0.21261,0.685083 -0.35436,0.259858 1.55915,0.283483 1.88988,-0.850448 0.35436,-0.307104 -0.59059,-0.04725 -0.51972,-0.118118 -0.35435,-0.236236 -0.89769,-0.755951 -0.47247,-0.543341 z"
             style="fill:#000000;fill-opacity:1;stroke:none;stroke-width:0.26458332px;stroke-linecap:butt;stroke-linejoin:miter;stroke-opacity:1" />
          <path
             inkscape:connector-curvature="0"
             id="path4591"
             d="m -146.96483,57.167359 0.34244,-0.292325 0.26727,-0.133636 0.3842,-0.03341 0.29233,0.100227 0.42596,0.400904 0.30903,-0.183747 0.27562,-0.659824 -0.20046,-0.77675 0.0167,-0.258919 0.11693,-0.467722 0.35914,-0.835216 -0.54289,-0.05011 -0.96885,0.676526 -0.90204,1.077431 z"
             style="fill:#000000;stroke:none;stroke-width:0.26458332px;stroke-linecap:butt;stroke-linejoin:miter;stroke-opacity:1" />
          <path
             inkscape:connector-curvature="0"
             id="path4593"
             d="m -155.15922,62.264972 0.27167,0.732329 0.2008,0.803199 -0.0945,0.944941 -0.22442,0.566965 0.99218,-0.259858 1.6064,-2.385976 0.42523,-1.015812 -0.31892,0.212614 -0.27167,0.177176 -0.4016,0.04725 h -0.44885 l -0.57877,-0.14174 -0.2953,-0.153553 -0.56696,0.2008 z"
             style="fill:#000000;fill-opacity:1;stroke:none;stroke-width:0.26458332px;stroke-linecap:butt;stroke-linejoin:miter;stroke-opacity:1" />
          <path
             inkscape:connector-curvature="0"
             id="path4595"
             d="m -185.66078,77.540273 -0.7087,1.322917 -0.21261,0.708705 0.0709,0.496094 0.11812,0.566965 -0.8977,-0.661459 0.0709,-1.393788 z"
             style="fill:#000000;fill-opacity:1;stroke:none;stroke-width:0.26458332px;stroke-linecap:butt;stroke-linejoin:miter;stroke-opacity:1" />
          <path
             inkscape:connector-curvature="0"
             id="path4597"
             d="m -186.55413,74.631753 -0.46772,-0.935445 0.0668,1.670436 v 0.668174 l -0.20045,0.501128 0.0334,0.400905 0.90204,-0.668174 0.20045,-1.035669 z"
             style="fill:#000000;fill-opacity:1;stroke:none;stroke-width:0.26458332px;stroke-linecap:butt;stroke-linejoin:miter;stroke-opacity:1" />
          <path
             inkscape:connector-curvature="0"
             id="path4601"
             d="m -204.17721,93.57448 -1.31965,1.186008 -0.23386,0.434313 0.0167,0.534538 0.50113,0.601358 1.28624,0.751695 -0.28398,0.534538 -2.83974,-0.434311 -1.11919,-0.150339 -1.30294,-0.01669 -1.48668,0.233859 -0.70159,0.167045 0.83522,-0.818512 z"
             style="fill:#000000;fill-opacity:1;stroke:none;stroke-width:0.26458332px;stroke-linecap:butt;stroke-linejoin:miter;stroke-opacity:1" />
          <path
             inkscape:connector-curvature="0"
             id="path4603"
             d="m -191.7048,55.52046 0.33073,2.740326 -0.0472,0.779577 -0.51972,0.850447 -1.58278,1.133927 -0.42522,0.59059 1.13393,0.28348 1.15755,0.04725 0.73233,0.07087 0.75595,0.283482 0.30711,0.212612 -0.99219,-5.457031 z"
             style="fill:#000000;fill-opacity:1;stroke:none;stroke-width:0.26458332px;stroke-linecap:butt;stroke-linejoin:miter;stroke-opacity:1" />
          <path
             inkscape:connector-curvature="0"
             id="path4605"
             d="m -179.04259,107.68117 1.60639,1.06306 0.68508,0.68508 0.42523,0.99219 -0.0945,1.22842 -0.33073,0.99219 1.13393,-0.49609 0.82683,-0.66146 0.89769,-0.61421 0.85045,-0.11812 0.63783,0.0709 2.50409,0.68508 -3.89787,-2.17336 z"
             style="fill:#000000;fill-opacity:1;stroke:none;stroke-width:0.26458332px;stroke-linecap:butt;stroke-linejoin:miter;stroke-opacity:1" />
          <path
             inkscape:connector-curvature="0"
             id="path4607"
             d="m -144.29214,114.92263 0.26728,3.90882 -0.0668,0.36749 -0.23386,0.16705 -0.33409,0.16704 -1.1693,-0.0334 -3.54132,-0.83521 5.54584,3.24064 0.60135,0.60136 0.30068,0.73499 -0.16704,-5.31198 z"
             style="fill:#000000;fill-opacity:1;stroke:none;stroke-width:0.26458332px;stroke-linecap:butt;stroke-linejoin:miter;stroke-opacity:1" />
        </g>
      </g>
      <path
         inkscape:connector-curvature="0"
         id="path4683"
         d="m -45.487071,139.34849 0.224424,0.18899 0.803199,0.88588 0.241614,0.31238 -0.141988,0.45519 -0.484426,0.0292 -0.879059,-0.98579 z"
         style="fill:#2ca089;fill-opacity:1;stroke:none;stroke-width:0.26458332px;stroke-linecap:butt;stroke-linejoin:miter;stroke-opacity:1" />
    </g>
  </g>
</svg>
